<mxfile host="app.diagrams.net" modified="2023-10-27T23:58:09.165Z" agent="Mozilla/5.0 (Windows NT 10.0; Win64; x64) AppleWebKit/537.36 (KHTML, like Gecko) Chrome/118.0.0.0 Safari/537.36" etag="AG0wC7HmgWX_7Zz94Bje" version="21.3.5" type="device">
  <diagram name="PÃ¡gina-1" id="yTzLf_mb3W0CZybBDTRM">
    <mxGraphModel dx="1221" dy="1839" grid="1" gridSize="10" guides="1" tooltips="1" connect="1" arrows="1" fold="1" page="1" pageScale="1" pageWidth="827" pageHeight="1169" math="0" shadow="0">
      <root>
        <mxCell id="0" />
        <mxCell id="1" parent="0" />
        <mxCell id="kZlyx7khXHaA0wbqzBR1-2" value="Cloud Console" style="rounded=1;whiteSpace=wrap;html=1;align=center;verticalAlign=top;" vertex="1" parent="1">
          <mxGeometry x="105" y="-100" width="320" height="440" as="geometry" />
        </mxCell>
        <mxCell id="kZlyx7khXHaA0wbqzBR1-1" value="GCP" style="rounded=0;whiteSpace=wrap;html=1;align=center;verticalAlign=top;" vertex="1" parent="1">
          <mxGeometry x="60" y="-140" width="820" height="520" as="geometry" />
        </mxCell>
        <mxCell id="kZlyx7khXHaA0wbqzBR1-12" value="Cloud Console" style="rounded=1;whiteSpace=wrap;html=1;align=center;verticalAlign=top;" vertex="1" parent="1">
          <mxGeometry x="110" y="-100" width="320" height="440" as="geometry" />
        </mxCell>
        <mxCell id="kZlyx7khXHaA0wbqzBR1-4" value="Docker Container" style="shape=cube;whiteSpace=wrap;html=1;boundedLbl=1;backgroundOutline=1;darkOpacity=0.05;darkOpacity2=0.1;verticalAlign=top;" vertex="1" parent="1">
          <mxGeometry x="150" y="-30" width="240" height="260" as="geometry" />
        </mxCell>
        <mxCell id="kZlyx7khXHaA0wbqzBR1-7" value="Flask API" style="rounded=1;whiteSpace=wrap;html=1;" vertex="1" parent="1">
          <mxGeometry x="220" y="40" width="120" height="60" as="geometry" />
        </mxCell>
        <mxCell id="kZlyx7khXHaA0wbqzBR1-11" value="Cloud&amp;nbsp; Database" style="rounded=1;whiteSpace=wrap;html=1;align=center;verticalAlign=top;" vertex="1" parent="1">
          <mxGeometry x="450" y="-100" width="320" height="440" as="geometry" />
        </mxCell>
        <mxCell id="kZlyx7khXHaA0wbqzBR1-10" value="" style="endArrow=none;html=1;rounded=0;exitX=1;exitY=0.5;exitDx=0;exitDy=0;" edge="1" parent="1" source="kZlyx7khXHaA0wbqzBR1-7" target="kZlyx7khXHaA0wbqzBR1-5">
          <mxGeometry width="50" height="50" relative="1" as="geometry">
            <mxPoint x="390" y="80" as="sourcePoint" />
            <mxPoint x="440" y="30" as="targetPoint" />
          </mxGeometry>
        </mxCell>
        <mxCell id="kZlyx7khXHaA0wbqzBR1-5" value="DB" style="shape=cylinder3;whiteSpace=wrap;html=1;boundedLbl=1;backgroundOutline=1;size=15;" vertex="1" parent="1">
          <mxGeometry x="560" y="-10" width="60" height="80" as="geometry" />
        </mxCell>
      </root>
    </mxGraphModel>
  </diagram>
</mxfile>
